#!OML:ASF I:\Actors\actors\Patient Classification 1\Patient 1\Session 1\Subject1.ASF
:FULLY-SPECIFIED
:DEGREES
951
root -0.723494 17.9705 7.45045 19.3565 -3.51782 -6.72302
lowerback 12.3026 1.87955 1.69328
upperback -6.30185 2.549 -2.46809
thorax -13.735 0.888675 -4.31087
lowerneck -16.8345 0.984713 0.54432
upperneck 23.9663 -0.203952 5.41873
head 10.4826 0.614817 1.81477
rclavicle -1.78906e-014 -9.54166e-015
rhumerus 43.9983 3.99454 -109.524
rradius 38.3006
rwrist 9.35129
rhand -4.12834 -43.2834
rfingers 7.12502
rthumb 21.6307 287.905
lclavicle -1.78906e-014 -9.54166e-015
lhumerus 40.4615 -9.57052 119.597
lradius 33.3939
lwrist 18.978
lhand -33.7142 -9.5438
lfingers 7.12502
lthumb -6.90369 20.3236
rfemur -16.5251 34.1585 16.4618
rtibia -1.10928
rfoot -8.52201 -29.4358
rtoes 9.60694
lfemur -12.3788 -42.9311 -0.596066
ltibia -3.49157
lfoot -13.9871 49.2922
ltoes 1.32626
952
root -0.749993 17.9456 7.4152 19.8191 -2.67977 -6.66033
lowerback 12.4905 1.82836 1.78083
upperback -6.18839 2.51453 -2.33633
thorax -13.723 0.873835 -4.21016
lowerneck -17.4123 0.397786 -0.0251536
upperneck 24.6349 -0.953281 5.57495
head 10.8651 0.257503 1.88284
rclavicle 1.98785e-014 -3.49861e-014
rhumerus 42.3107 0.293764 -113.585
rradius 31.2508
rwrist 12.7345
rhand -3.86517 -43.9662
rfingers 7.12502
rthumb 21.8834 287.251
lclavicle 1.98785e-014 -3.49861e-014
lhumerus 39.7464 -3.14102 124.12
lradius 26.0881
lwrist 15.1204
lhand -34.7158 -6.73585
lfingers 7.12502
lthumb -7.87049 23.0976
rfemur -17.0943 35.2822 15.8665
rtibia -1.44236
rfoot -9.35516 -31.2101
rtoes 10.7155
lfemur -13.6653 -43.9831 0.639407
ltibia -3.56005
lfoot -14.3557 49.9661
ltoes 1.53371
953
root -0.773912 17.92 7.38579 20.259 -1.81881 -6.53302
lowerback 12.658 1.74523 1.81242
upperback -6.08776 2.43086 -2.16835
thorax -13.7211 0.842775 -4.02509
lowerneck -17.9459 -0.116345 -0.54753
upperneck 25.2055 -1.57666 5.6324
head 11.2078 -0.0513985 1.91844
rclavicle -6.75868e-015 2.06736e-014
rhumerus 40.9458 -5.55537 -119.24
rradius 24.7092
rwrist 17.3562
rhand -4.29686 -43.8051
rfingers 7.12502
rthumb 21.4689 287.365
lclavicle -6.75868e-015 2.06736e-014
lhumerus 39.8513 6.26686 130.997
lradius 19.3576
lwrist 6.46449
lhand -35.5016 -4.21303
lfingers 7.12502
lthumb -8.62888 25.5906
rfemur -17.6712 36.5057 15.1327
rtibia -1.74638
rfoot -10.3527 -33.1024
rtoes 12.0048
lfemur -14.9841 -45.1422 1.85915
ltibia -3.61823
lfoot -14.8819 50.7074
ltoes 1.91232
954
root -0.795048 17.8968 7.36231 20.7002 -0.966118 -6.38089
lowerback 12.7774 1.64063 1.82634
upperback -5.98116 2.31728 -1.97615
thorax -13.6858 0.801838 -3.79284
lowerneck -18.4125 -0.538508 -0.976908
upperneck 25.5494 -2.05737 5.60559
head 11.4517 -0.301387 1.91971
rclavicle 7.95139e-015 -6.36111e-015
rhumerus 40.2548 -13.6136 -126.159
rradius 19.7734
rwrist 23.9527
rhand -4.6311 -43.5696
rfingers 7.12502
rthumb 21.1478 287.564
lclavicle 7.95139e-015 -6.36111e-015
lhumerus 41.6456 18.3898 140.149
lradius 14.3688
lwrist -6.70441
lhand -36.2886 -2.10129
lfingers 7.12502
lthumb -9.38832 27.6696
rfemur -17.8037 35.6795 15.1417
rtibia -2.17781
rfoot -10.7718 -32.9132
rtoes 13.3946
lfemur -16.3554 -46.2803 3.10446
ltibia -3.65558
lfoot -15.4483 51.4386
ltoes 2.33242
955
root -0.813227 17.8787 7.34428 21.1498 -0.155097 -6.23447
lowerback 12.8313 1.53174 1.83603
upperback -5.84457 2.19839 -1.76525
thorax -13.5753 0.762204 -3.53166
lowerneck -18.8091 -0.876073 -1.31129
upperneck 25.5903 -2.41367 5.52972
head 11.5626 -0.497547 1.89669
rclavicle 1.07344e-014 -1.11319e-014
rhumerus 39.9929 -21.6838 -132.227
rradius 17.0744
rwrist 30.473
rhand -4.6799 -43.5765
rfingers 7.12502
rthumb 21.1009 287.552
lclavicle 1.07344e-014 -1.11319e-014
lhumerus 45.1012 29.943 149.453
lradius 11.6896
lwrist -19.9178
lhand -37.0093 -0.425634
lfingers 7.12502
lthumb -10.0836 29.3128
rfemur -18.0129 34.8794 15.105
rtibia -2.51741
rfoot -11.1903 -32.7162
rtoes 14.7643
lfemur -17.7624 -47.2512 4.36523
ltibia -3.66005
lfoot -15.8973 52.0623
ltoes 2.63189
956
root -0.828487 17.8671 7.33024 21.5959 0.581621 -6.12163
lowerback 12.8656 1.42968 1.88283
upperback -5.6833 2.09357 -1.56513
thorax -13.4209 0.726183 -3.30568
lowerneck -19.1416 -1.15291 -1.55787
upperneck 25.3486 -2.69797 5.46627
head 11.55 -0.655872 1.86769
rclavicle -8.94531e-015 -1.90833e-014
rhumerus 39.0212 -27.1924 -135.172
rradius 16.1369
rwrist 34.2206
rhand -4.16097 -43.9396
rfingers 7.12502
rthumb 21.5994 287.245
lclavicle -8.94531e-015 -1.90833e-014
lhumerus 47.0809 36.9449 154.136
lradius 10.815
lwrist -26.9802
lhand -37.5255 0.862396
lfingers 7.12502
lthumb -10.5816 30.576
rfemur -18.3236 34.1445 15.0374
rtibia -2.73112
rfoot -11.5455 -32.5245
rtoes 15.9506
lfemur -19.1396 -47.925 5.58757
ltibia -3.63031
lfoot -16.0863 52.4895
ltoes 2.6918
